<svg id="Layer_3" data-name="Layer 3" xmlns="http://www.w3.org/2000/svg" viewBox="0 0 472.04 567.6"><defs><style>.cls-1{fill:#f4d623;}.cls-2{fill:#b14030;}.cls-3{fill:#fff;}.cls-4{fill:#1ca1c3;}.cls-5{fill:#f15e5e;}</style></defs><title>drummer</title><path class="cls-1" d="M287.14,346.38a45.81,45.81,0,0,0,6.41,9.56c3.78,4.48,7.24,9.34,10.63,14.13,4.8,6.77,10.67,12.06,16.79,17.55,4.76,4.28,10,7.75,14.74,12.13,2,1.91,4,4,6.22,5.73,3.27,2.59,7,4.31,10.43,6.64,3.58,2.45,7.31,4.49,11.78,4.44,4.29-.05,8.58.24,12.58-1.63,2.28-1.06,3.44-2.89,4.93-4.8A32,32,0,0,0,386,403.8c2.64-5.81,5.64-11.37,7.4-17.57.75-2.6,1.39-5.14,2.3-7.68a24.12,24.12,0,0,0,.76-4.65c.17-1,1.16-1.92.55-3s-1.75-.69-2.7-1-1.95-1.15-3-1.54a43.53,43.53,0,0,1-4.65-2c-2.14-1.11-4.08-2.59-6.28-3.54-3-1.29-4.27-2-6.09-4.78-1.09-1.68-1.94-2.88-1.33-4.93.77-2.61,2.2-4.32,4.82-4.5a127.81,127.81,0,0,1,14.25,0c2.29.11,3.9,1.13,5.91,2.07,1.52.71,4.58,2,5.28-.1.45-1.35-.5-2.91-.68-4.19s-.12-2.44-.33-3.69a38.44,38.44,0,0,1-.57-6.82c0-2.16,0-4.33,0-6.49,0-2.6.62-4,1.31-6.45.78-2.77,1-5.12,2.94-7.41,1.53-1.79,2.5-4.55,5.35-3.74a10.39,10.39,0,0,1,3,2.14c.88.73,2.19,1.36,3,2.14s1,2.1,1.6,3c.8,1.26,1.86,2.4,2.62,3.67,1.13,1.88,1.09,4.24,1.73,6.3.78,2.51,1.43,4.16,1.4,6.84s1.12,5.4.77,8.12a39.66,39.66,0,0,1-1.71,6.7c-1.42-2.09.27-4,.79-5.95.37-1.38.05-2.83.12-4.23a37.66,37.66,0,0,1,.91-5.74c.29-1.35,1-2.56,1.27-3.93.17-.86.2-1.7.41-2.55a47.52,47.52,0,0,1,4.81-12.18c.95-1.64,1.91-3.92,3.68-4.8s4.13-.33,5.88.33c3.27,1.23,5.06,5.19,6.29,8.24.65,1.61.8,3.57,1.36,5.27a17.27,17.27,0,0,1,.53,5.69c0,3.51,0,7,0,10.53,0,3-1.1,4.55-2.28,7.24-.42,1-.5,2-.85,3-.41,1.18-1.28,1.79-1.67,2.9,2.31-.21,3.88-4.22,4.78-5.93,1.31-2.47,2.9-4.84,4.44-7.17,1.34-2,3-4.48,5.29-5.61,1.35-.68,2.78-.25,4.16-.47s2.49-.66,3.82-.77c5.35-.42,7.95,5,8.72,9.6.86,5.11-1.13,8.17-3.37,12.54a62.91,62.91,0,0,1-3.89,7.46c-1.45,2.12-2.38,4.62-4.2,6.5s-4.64,3-6.84,4.56a41.65,41.65,0,0,1-6.06,3.1,10.4,10.4,0,0,1-3.55,1.37c-1.22.16-2.3-.19-3.54.11-.85.2-1.43.44-2.27.58a26,26,0,0,0-2.85.12,26.72,26.72,0,0,0-4.12,1.32c-1.62.74-1.63.61-2,2.38-.31,1.31-.11,2.75-.49,4.14-.48,1.78-.57,3.44-.92,5.2-1,4.86-3,9.4-4.3,14.2-.69,2.58-.94,4.44-2.36,6.8-1.66,2.73-1.84,5.68-2.8,8.75A68.52,68.52,0,0,1,418,433.59c-1.09,2.17-1.53,4.2-3.26,6.05-2.17,2.32-3.9,4.92-5.91,7.37-3.35,4.08-7.37,7.74-12.42,9.64-2.23.85-4.05,2-6.46,2s-4.34.52-6.63.76a12.83,12.83,0,0,1-6.63-.94,51.86,51.86,0,0,0-6.09-2.05c-5.15-1.6-10.13-2.12-14.87-5-2.23-1.35-4.43-2.55-6.72-3.81s-5-2.23-7.24-3.7c-2.46-1.63-4.31-3.95-6.82-5.37a44.56,44.56,0,0,1-7.14-4.95c-2.68-2.34-5.64-4.23-8.18-6.71-2.06-2-4.62-3.09-6.67-5.17-4.15-4.23-9.89-6.88-13.3-11.82" transform="translate(-7.74 -9.32)"/><path class="cls-2" d="M284,348.22c2.47,4.83,5.87,8.8,9.22,13,4,5.08,7.46,10.6,11.62,15.57,7.5,8.95,16.86,15.71,25.69,23.21,8.2,7,16.17,14.79,26.43,18.77,8.92,3.46,20.95,2,27-5.69,6.64-8.5,10.83-18.68,13.81-29,1.11-3.84,3.46-9.15,2.9-13.15-.58-4.2-5.15-4.69-8.36-6.12-3-1.32-5.61-2.87-8.46-4.4-1.85-1-4-1.55-5.48-3.05-2.3-2.27-2.69-4.89,1.19-5.27a71.44,71.44,0,0,1,10.75,0c4,.23,7.53,3.56,11.6,3.17,4.84-.46,5.27-4.71,4.53-8.56-1.15-5.92-2-13.12-1-19.12a38.62,38.62,0,0,1,2.09-7.64,13,13,0,0,1,1.91-3.13c1.54-2.06.55-1.34,2.26-.39,4.64,2.6,6.72,8.73,8,13.52,1.77,6.73,2.57,13,.46,19.73h7c-.64-1.55.55-3.05.85-4.51a21.42,21.42,0,0,0,.2-4c.07-3.42,1.25-6.18,2-9.41,1-4,3.59-18.8,9.74-16.78,5.57,1.83,6.07,12.92,6.07,17.57,0,3.5.6,7.48-.32,10.88a48.13,48.13,0,0,1-4,9.2c-1.4,2.66.94,6.36,4.11,5.34,3.41-1.1,4.94-3.71,6.54-6.74,2-3.89,5.21-11.1,9.78-12.24a23,23,0,0,1,5.79-.75c2.4.26,3.42,2.4,4.09,4.51,1.65,5.19-1,9.11-3.22,13.6-2.07,4.22-4.36,9.89-8.13,12.81-3.17,2.45-8.14,5.48-12,6.56-5.35,1.5-16.18-.37-18.6,6.45-1.55,4.35-1.29,9.45-2.57,14-1.38,4.79-2.7,10.1-4.52,14.73-.85,2.15-2,4-2.71,6.2s-1.11,4.7-1.93,7c-1.72,4.76-4.09,10.2-7.24,14.16-6.25,7.88-12.2,15.62-22.85,16.89-2.6.31-5.22,1-7.82.59s-4.88-1.57-7.3-2.32c-5.26-1.61-10.7-2.47-15.57-5.11-5.07-2.75-11-5.17-15.53-8.75-4.25-3.37-8.77-6.27-13-9.65-4.66-3.72-9.56-7.32-14-11.26-4-3.51-9-6.29-12.2-10.56-2.78-3.7-9.1-.07-6.28,3.67,3.31,4.38,7.54,7.07,11.68,10.55,4.49,3.78,9,7.54,13.63,11.15s9.54,6.64,14,10.29c4.6,3.77,9.59,6,14.75,8.9A71.27,71.27,0,0,0,368,459.46c6,1.65,10.78,4.12,17.08,3.41,5-.57,9.23-1.26,13.87-3.33a34.79,34.79,0,0,0,12.53-10c3.35-4.06,6.94-8.08,9.15-12.87a125.63,125.63,0,0,0,6.54-17c.74-2.43,2.09-4.52,2.91-6.91s1.38-5.16,2.19-7.69a132.69,132.69,0,0,0,4.51-18.21c.43-2.46-1.12-.79.54-2a7.78,7.78,0,0,1,3-.82c2.62-.37,5.32-.44,7.92-.81,4.92-.69,9.62-3.91,13.79-6.41,8.35-5,13.62-15.6,16.87-24.6,2.94-8.15-.92-21.82-11.47-21.4-5.66.23-10.67,1.15-14.34,5.75a71.52,71.52,0,0,0-5.26,7.88c-.78,1.32-2.38,6-3.86,6.45l4.11,5.35c2-3.83,4.2-8.07,5-12.36,1-4.92.54-11,.21-16-.53-7.95-4.21-18.68-13-20.43-9.78-1.94-13.8,10-16,17.46a80.6,80.6,0,0,0-3.17,13.62c-.28,2.47-.1,4.53-.84,6.92s-1.09,3.82-.13,6.13c1.32,3.19,5.86,3.69,7,0C430,342.44,428.2,334,426,324.83c-.9-3.68-3.36-7.63-5.64-10.62-1.8-2.37-5.69-5.38-8.61-6-7.6-1.67-11,9-12.48,14.43A42.76,42.76,0,0,0,398,335a63.38,63.38,0,0,0,.44,6.88c.12,1,1.58,6.89,1.11,7.58l2.18-1.67c-1.72.7-6.75-2.46-8.73-2.76a69.22,69.22,0,0,0-11.7-.3c-6,.16-11.82,2.14-12.12,9.21-.21,5.27,4.43,9.56,8.77,11.68,3.51,1.72,6.78,3.79,10.37,5.38,1.32.58,3.56,2.38,5,2.35.25,0,2.3.49.48-.66-1.25-.79-.71-.25-1,1.17A103.77,103.77,0,0,1,385,397.25c-3.46,7.35-7,15.16-16.08,15.62-4.31.23-8.18,0-12-2.15-3.69-2-7.52-4.44-11-6.83s-6.37-5.66-9.6-8.45c-3.06-2.65-6.34-5-9.48-7.58-7.35-6-14.48-12.64-20-20.34-5.44-7.55-12.29-14.69-16.53-23-2.14-4.17-8.42-.5-6.29,3.67Z" transform="translate(-7.74 -9.32)"/><path class="cls-1" d="M135.7,327.18c-3.54.48-6.83,1-10.39.65A86.35,86.35,0,0,1,112,325.05c-11.22-3-22.31-7-33.29-10.83-4-1.4-8-2.8-12-4.23-2.7-1-5.07-2.46-7.71-3.56-4.07-1.69-7.65-4.05-11.71-5.79s-7.17-4.82-10.58-7.3a26,26,0,0,1-3.68-2.9c-1.07-1.08-2-2.26-3.14-3.34-2.26-2.2-3.11-4.6-4.76-7.18a79.46,79.46,0,0,1-5.72-10.73c-1.49-3.38-3.37-6.62-4.86-10a25.67,25.67,0,0,1-1.61-7.13c-.35-2.39-.65-4.86-1.15-7.26-.65-3.14-.16-6.75-.16-9.95s-.29-6.37,0-9.46a32.5,32.5,0,0,1,2.27-9.19c1.09-2.8,1.59-5.75,2.75-8.54s2.08-5.54,3.09-8.4a41.81,41.81,0,0,1,6.85-11.69,68.54,68.54,0,0,0,4.89-6.14A24.15,24.15,0,0,1,34.7,177a54.92,54.92,0,0,0,5.71-7.8c2.19-3.29,6-6.34,8.86-9,1.88-1.75,4-3.56,6.07-5.15,1.06-.83,2.33-1.37,3.39-2.2.83-.66,1.48-1.65,2.32-2.25,1.75-1.25,4.2-2.09,6.13-3.1a88.07,88.07,0,0,0,7.74-4.25c2.16-1.41,4.48-2.42,6.69-3.72s4.35-2.93,6.9-3.81c4-1.39,8-3.33,11.88-5,5.64-2.4,11.39-4.94,16.9-7.63,14.8-7.23,30-13.51,42.79-24.17,3.78-3.16,8-5.6,11.85-8.69a50.79,50.79,0,0,0,4-3.91c1.7-1.68,4-2.21,5.78-3.8,2.7-2.45,5.18-5.24,7.76-7.82s4.82-5.46,7.33-8.09c6.41-6.71,11-15.15,15.94-22.93,2-3.12,3.44-6.62,5.67-9.57a37.33,37.33,0,0,0,3-3.93c.5-.87,1.49-3.34,2.8-3.17,1,4.9-.14,10.08.85,15.09.42,2.16,1.18,4.4,1.43,6.59a53.71,53.71,0,0,0,.41,5.53c1.28,5.92,3.42,11.5,5,17.33.51,1.88.79,3.47,2,5.06a33.78,33.78,0,0,1,3,3.82c1.77,3.09,2.56,6.22,5.12,8.86,2.38,2.47,4.75,4.76,6.89,7.45,2.45,3.09,5.81,5.35,8.63,8.09,1.36,1.33,3,2,4.48,3.11a57.77,57.77,0,0,1,4.6,4.1c2.52,2.32,6,4.13,8.82,6.1,3.59,2.49,8.07,3.11,11.67,5.83,3.25,2.45,6.83,4.21,10.28,6.36,3.27,2,6.54,3.12,10,4.77,4.49,2.12,8.56,4.92,13.12,6.82a30.47,30.47,0,0,1,5.64,3.5c2.52,1.76,5.35,3,7.78,4.9,4.53,3.49,8.59,7.47,13,11.05,6.81,5.5,12.73,12.42,18.54,18.88,6.69,7.44,12.65,15.74,18.36,23.67,2,2.82,3.25,6.33,5.17,9.27a36.65,36.65,0,0,1,4.27,10c.79,2.87,1.54,5.78,2.52,8.63a60.46,60.46,0,0,1,2.11,6.3,37.77,37.77,0,0,1,.66,6.33c.2,2.66,1.53,4.69,1.52,7.42,0,3.2,0,6.39,0,9.59,0,6.46.2,12.82-.91,19.2-.28,1.67-.9,3.32-1.29,4.95-.33,1.39-1.09,2.52-1.43,3.87-.9,3.65-3,6.69-4.13,10.29-.75,2.47-2.3,4.49-3.53,6.71s-2.44,5.23-4.15,7.21c-1.19,1.37-2.83,2.56-4.12,3.87a23.28,23.28,0,0,1-4.18,3.35,45.1,45.1,0,0,1-8.5,4.42c-5.46,2-11.06,2.92-16.68,4.61-3.92,1.17-7.94,1.64-11.88,2.56a43,43,0,0,0-4.12,1.63c-1.8.62-3.62.37-5.46,1-2.83.91-5.61.63-8.41,1.46-4.24,1.25-8.52,2.2-12.8,3.26-1.31.32-2.56,1-3.87,1.24-1.63.35-3.25-.08-4.86.32-2.66.65-5.36.57-8.07,1.15-1.31.28-2.73-.12-4,.49-2.83,1.42-.88,4.63.05,6.71,1.67,3.71,2.37,7.71,4.08,11.44,1.26,2.76,2.44,5.51,3.9,8.11s1.88,5.74,3.44,8.31c.89,1.45,2.13,2.65,2.83,4.23.57,1.28.93,2.55,1.62,3.8a65.61,65.61,0,0,1,4.56,10.28c.54,1.52.81,3.3,1.44,4.72.44,1,1.27,1.68,1.62,2.79a55.63,55.63,0,0,1,1.62,8.84,58.78,58.78,0,0,1,.76,8.06c0,3.62,0,7.24,0,10.86a17.33,17.33,0,0,1,0,3.88,20.4,20.4,0,0,1-1.46,2.92,71.85,71.85,0,0,1-3.66,8.12c-.95,1.7-2.3,3-3.31,4.61-1.72,2.76-3.2,3.32-6.32,4.3-4.65,1.47-9.32,3.25-14.09,4.26-10.72,2.26-21.54,4.53-32,7.9-4.47,1.44-9.21,1.57-13.77,2.58-5.51,1.23-10.68-.09-16.28,0a38.93,38.93,0,0,1-8-.79,22.11,22.11,0,0,0-3.9-.69,22.56,22.56,0,0,1-5.8-.41c-3.56-.95-6.95-2.43-10.48-3.46-1.37-.4-2.68-.35-4-.69-1.58-.39-3.08-1.12-4.69-1.49-4.27-1-8.55-2.07-12.83-2.88-3.83-.72-6.55-3.06-10-4.66a77.89,77.89,0,0,1-8.67-4.12,82.33,82.33,0,0,1-6.79-5,26,26,0,0,1-6.3-6.82c-2.06-3.09-4.39-6.36-6.13-9.63-1.3-2.44-1.31-4.75-1.77-7.35-.74-4.19-2.34-8.31-2.75-12.56-.79-7.94.89-15.26,2.69-22.93.87-3.67,3.51-6.64,4.66-10.27.87-2.74,1.9-5.45,2.56-8.24a35.45,35.45,0,0,0,1.15-5.13c.12-1.51-.25-2.95.12-4.44a17,17,0,0,0,.55-3.21c.13-1.78,1.19-3.21,1.73-4.91a18.42,18.42,0,0,0,.48-4.42,19.23,19.23,0,0,1,1.16-3.76,31.6,31.6,0,0,0,1.09-8.82c0-3.25-.3-3.7-3.73-3.67-2.45,0-4.9,0-7.35,0m110.81,135.9c0,6.93-.35,13.95,0,20.87.16,3.63,1.19,7.28,1.51,10.92a84.8,84.8,0,0,0,1.66,11.66c1,4-.41,8.7,1.1,12.55a12.47,12.47,0,0,1,.94,5.36c0,2.73.75,5.14.73,7.9a42,42,0,0,0,.56,8.16,27.38,27.38,0,0,1,.92,5.87,14.69,14.69,0,0,0,.94,6.13c.78,2,.16,3.89.71,5.88a26.5,26.5,0,0,1,.57,6c.12,2,.13,2.6,2.3,3,4.16.69,9-.21,13.2-.09a61.08,61.08,0,0,1,8,1,59.35,59.35,0,0,0,9.79.54c13.73,0,27.48-.17,41.2,0a17.11,17.11,0,0,0,5.17-.74c1.67-.49,3.07-1.43,4.71-2,2.73-1,5.28-1.12,5.85-4.61a19.9,19.9,0,0,0-.79-7.93c-1.56-5.7-4.53-8.87-9.42-12a44.89,44.89,0,0,0-8.18-4.29,19.52,19.52,0,0,0-2.2-.72c-1.6-.39-3-1.12-4.63-1.52-1.9-.47-3.93-.26-5.86-.68-2.52-.56-4.74-1.5-7.23-2.21a8.78,8.78,0,0,1-3.16-1.2c-.93-.77-1.4-2.49-2.18-3.46a41.28,41.28,0,0,1-5-7.88c-1.29-2.72-2.67-5.6-3.85-8.33-.81-1.86-1.89-3.64-2.24-5.69-.91-5.37-2.05-11-2.18-16.47-.07-3-1.32-5.79-1.5-8.81a44,44,0,0,0-.57-5.1c-.27-1.55,0-3.07-.33-4.58-.53-2.22-.37-4.54-1.11-6.76s-.64-5.39-2.42-7.26m-108.31,2.22c-2.5,2-1.49,5.76-1.56,8.49,0,1.43-.65,2.27-.83,3.66-.21,1.65.1,2.67-.52,4.26-2.1,5.38-.39,11.45-1.6,17-.59,2.71.13,5.56-.15,8.31-.14,1.4-.77,2.66-.83,4.09,0,1.11,0,2.24,0,3.35,0,1.65,0,3.3,0,4.95,0,1.83-.68,2.52-1.4,4.23-.52,1.23-.62,2.61-1.09,3.84-.66,1.75-1.74,3.25-2.38,5.06-.85,2.41-3.73,4.5-5.65,6.25s-4.51,1.8-6.95,3c-1.7.86-2.69.67-4.4,1.16-.87.25-1.59.91-2.48,1.17-2.56.72-5.26.59-7.82,1.07a41.57,41.57,0,0,0-8.56,2.77c-1.37.59-2.72,1-4.14,1.46s-2.21,1.38-3.48,2.09c-1.51.84-2.93,1-4,2.54-.71,1.06-1.21,2.42-1.8,3.53-1.24,2.29-1.24,4.16-1.27,6.65a12.29,12.29,0,0,0,.72,3.29c.26,1.18-.15,2.38,0,3.56.29,2.1,3.33,5.79,5.54,6.37s5.16.07,7.38.07h8c2.92,0,5.44-.77,8.33-.74s5.78,0,8.66,0c2.68,0,4.78-1.13,7.38-1.52s5.19.2,7.67.05,4.6-.76,7.15-.75a60.22,60.22,0,0,0,8.61-.68c3.45-.45,7.25-.06,10.74-.06,2.3,0,6.48.82,8.6-.08,2.92-1.23,2.51-6.5,2.5-8.94a35.54,35.54,0,0,1,.6-7.07c.25-1.35.07-2.68.35-4a15.73,15.73,0,0,0,.61-3.91,18.3,18.3,0,0,1,1.19-6.55c.73-2.37.37-5.14.37-7.62v-8.14c0-4.85,0-9.7,0-14.55a20,20,0,0,1,0-3.37c.19-1,.75-1.84.86-2.91.48-4.88-.66-9.94,0-14.81.48-3.42,2.26-6.5,2.3-10,0-3.08,0-6.17,0-9.25" transform="translate(-7.74 -9.32)"/><path class="cls-2" d="M134.73,323.67c-9.26,1.28-17.57-.86-26.44-3.45-8.41-2.46-16.69-5.34-25-8.23-14.44-5.05-30-10.25-42.17-19.77A52.66,52.66,0,0,1,27.32,276.6a111.63,111.63,0,0,1-5.19-10.09c-1.8-3.86-4.3-7.61-5.15-11.82-1.62-7.95-1.68-15.59-1.83-23.63-.15-7.86,2.23-15.12,4.94-22.44,3-8.06,6-14.82,11.54-21.49,4.24-5.14,8-10.69,11.92-16.08,4.2-5.77,10.68-10.63,16.46-14.69,2.66-1.87,4.8-3.72,7.8-5.14,3.55-1.69,6.86-3.69,10.26-5.64,26.67-15.37,58-23.14,82.5-42.42,3.83-3,7.84-5.74,11.74-8.66,2.92-2.18,5.21-5.1,8.32-7,7.16-4.3,12.54-11.58,18.12-17.68,5.78-6.34,10.3-13.37,14.81-20.65,2.16-3.49,4.08-7.12,6.23-10.61,1.14-1.85,2.58-3.43,3.84-5.19a15.64,15.64,0,0,0,1.57-2.89L220.73,28c.63,4.22,0,8.5.5,12.73.44,3.94,1.43,7.71,1.82,11.68.7,7.25,3.57,14.56,5.72,21.49.95,3.07,2.5,4.89,4.32,7.48S236,87.28,237.9,90c4,5.51,9.46,10.71,14.57,15.17,2.42,2.11,4.81,3.87,7.39,5.76s4.68,4.31,7.3,6.16a72.43,72.43,0,0,0,8.57,5.44c3.18,1.63,6.55,2.63,9.56,4.61a133.07,133.07,0,0,0,18.83,10.45,128.42,128.42,0,0,1,18.86,10,176.79,176.79,0,0,1,17.54,13,191.4,191.4,0,0,1,16.58,15.64c10.63,11.65,20.28,23.75,28,37.46,3.75,6.6,5.26,13.53,7.78,20.63a45.4,45.4,0,0,1,2.14,10.57c.42,3.72,1.44,7,1.44,10.78,0,8.42.82,17.38-1.14,25.65A89.2,89.2,0,0,1,388,300.73c-3,5.93-6.15,11.2-11.31,15.49-6.53,5.42-14.73,7.13-22.72,9.19-3.79,1-7.51,2-11.37,2.73s-7.27,2.29-11,2.95c-7.48,1.31-14.79,2.91-22.17,4.77-6.75,1.7-13.45,2.21-20.35,3.18-5.2.73-7.39,4.84-5.65,9.67a195.88,195.88,0,0,0,7.62,19.22c1.55,3.2,2.7,6.52,4.2,9.73,1.26,2.7,3.14,4.93,4.36,7.67,1.38,3.11,3.06,6.05,4.3,9.23,1.15,2.94,1.79,6,3.21,8.82,3.27,6.52,3,15.17,3,22.36,0,3.28.6,6.92-.75,9.91-1.48,3.29-2.64,6.8-4.69,9.81-1.7,2.51-3.19,4.74-6.06,5.83-3.61,1.38-7.43,2.55-11.15,3.58-8,2.22-16.31,3.51-24.38,5.58-7.81,2-15.29,4.13-23.26,5.44a73.14,73.14,0,0,1-24.07-.46c-2.95-.54-5.8-.56-8.75-1-4-.55-7.56-2.65-11.44-3.59-7.13-1.74-14.42-3.18-21.55-5.06-3.59-.94-6.55-3.09-9.89-4.62a62.31,62.31,0,0,1-9.37-4.73c-6.45-4.36-10.84-9.81-14.86-16.4-2.05-3.34-2.45-6.4-3.2-10.18-.84-4.19-2.34-8.21-2.58-12.51-.43-7.54.79-16.89,4.17-23.71,3.1-6.27,6.06-13,6.89-20.07a174.13,174.13,0,0,1,3.16-18.28c1.1-4.85,4-11.8,1.34-16.69-2.4-4.4-10-2.86-14-2.87-4.68,0-4.69,7.27,0,7.28h5.51a20.37,20.37,0,0,0,3,0c-.68.48-.19-1.57-1.07-.54-.52.62-.18,4.46-.32,5.39-.32,2.15-1.2,4-1.66,6.12-.29,1.36-.21,2.74-.47,4.1-.32,1.64-1.17,3-1.62,4.6-1,3.52-.65,7.11-1.19,10.65a60,60,0,0,1-3.17,10.83c-1.29,3.57-3.53,6.7-4.69,10.33a67.23,67.23,0,0,0-3.23,21.94,50.77,50.77,0,0,0,1.79,10.88c.93,3.68,1.19,7.68,2.39,11.27,2,5.81,6.83,12.55,11.09,16.93,5,5.12,11.19,8.7,17.63,11.59,3,1.36,5.83,3.24,8.89,4.55,3.69,1.57,7.86,2,11.74,2.94,7.48,1.75,14.67,4,22,6.21,2.94.87,5.55.78,8.54,1.05,3.45.31,6.78,1.29,10.26,1.46,3.86.18,7.75.44,11.61.53s7.7-.79,11.6-1.38c8.35-1.27,16.24-4,24.44-6s16.85-3.36,25-6c5.79-1.88,10.93-2.91,14.62-8,3.49-4.8,7.27-10.71,8.8-16.52.76-2.88.16-6.43.16-9.38a97.45,97.45,0,0,0-.43-12,86.75,86.75,0,0,0-1.61-10.52c-.8-3.19-2.49-6.08-3.52-9.22a78.63,78.63,0,0,0-8.27-17.63c-1.78-2.71-2.57-5.59-3.9-8.53-1.79-4-4-7.7-5.45-11.83-1.13-3.2-2.14-6.38-3.4-9.53-.8-2-1-1,.32-1.2,2.1-.31,4.23-.53,6.33-.79a160.77,160.77,0,0,0,21.27-4.35c3.46-.92,6.83-1.44,10.35-2.05a92.65,92.65,0,0,0,11.28-3c7.81-2.34,16.09-3.47,24-5.7a46.51,46.51,0,0,0,18.87-10.17c9.34-8.5,14.46-21.73,18.29-33.56,2.42-7.48,2.35-15.41,2.33-23.19,0-4.06.28-8.25-.07-12.3-.31-3.55-1.35-7-1.73-10.57a44.11,44.11,0,0,0-2.62-9.66c-1.31-3.82-2.12-7.79-3.45-11.6a77.53,77.53,0,0,0-9.42-17.93c-9.25-13.2-19.44-26-31-37.26-10.16-9.87-21.76-19.81-34.6-26-6.51-3.12-13.14-6.4-19.54-9.75s-12.29-8.1-19.09-10.91c-7.07-2.92-12-7.95-18-12.37a117,117,0,0,1-16.09-14.73c-2.37-2.51-4.59-4.69-6.14-7.81s-4.39-6.1-5.84-9.33-2-7.07-3.09-10.41a60,60,0,0,1-2.88-13.19c-.3-3.84-1.69-7.46-1.89-11.3-.22-4.14.05-8.16-.57-12.28-.3-2-2.75-3-4.47-2.54-2.43.59-3.32,2.22-4.63,4.16-2.11,3.15-4.46,6-6.31,9.34a203.46,203.46,0,0,1-13.15,21c-5.2,7.16-11.72,13.85-18.07,20-2.54,2.46-5.72,3.77-8.26,6.21a87.89,87.89,0,0,1-10.21,8.2c-7,5-13.59,10.37-21.19,14.6-7.42,4.14-15.16,7.67-22.82,11.35-15.2,7.3-31.07,13-45.55,21.69a113.33,113.33,0,0,1-10.22,5.41c-3.51,1.65-6.22,4.16-9.35,6.39-5.64,4-11.72,9.28-15.8,14.87-4.49,6.16-9,12.28-13.77,18.22-5.15,6.39-7.64,13.29-10.53,20.86s-5.62,15.25-5.58,23.3c0,4.11-.17,8.28,0,12.38s1.14,8.19,1.72,12.22c1.11,7.76,5.39,15.07,9,22,3.37,6.48,7.1,12.87,12.54,17.83C44,305.38,61.41,312,77.73,317.73c18.71,6.53,38.8,15.74,58.94,12.95,4.62-.63,2.65-7.65-1.94-7Z" transform="translate(-7.74 -9.32)"/><path class="cls-2" d="M242.87,465.29c0,6.93-.52,13.95,0,20.87.43,6.16,1.47,12.47,2.39,18.59a69.07,69.07,0,0,1,1.15,8.7,38.24,38.24,0,0,0,.42,7.33,99.12,99.12,0,0,1,2,17.07,65.72,65.72,0,0,0,1.12,8c.47,2.75.32,5.52.89,8.26.51,2.48.85,4.9,1.21,7.41s0,5.46.81,7.76c1.34,3.7,5.37,4,8.79,4.09,2.8.08,5.58-.33,8.37-.35a76.77,76.77,0,0,1,10.25,1.07c13.24,1.68,27.19.32,40.52.37,5.83,0,12,.79,17.54-1.4,3.62-1.44,8.87-2.6,10.77-6.41,4.16-8.31-2.25-19.72-8.87-24.64a47.71,47.71,0,0,0-13.53-7c-5.38-1.78-10.85-2.29-16.26-4-5.66-1.75-8.82-9.53-11.21-14.64a61.51,61.51,0,0,1-6-21.67c-.65-7.17-1.93-14.21-2.53-21.39-.41-5-1.08-12.42-4.12-16.61-2.72-3.76-9-.13-6.28,3.67,2.47,3.41,2.79,9.6,3.22,13.7.59,5.67,1.61,11.31,2.21,17,.56,5.25,1,10.43,2,15.64s3.66,10.18,6,15a94,94,0,0,0,7.16,12c2.36,3.49,6.65,4.13,10.46,5.29,4.44,1.37,9,1.56,13.41,3,4.9,1.6,10.39,4.28,13.91,8.19,2.28,2.53,6.48,10.74,3.08,13.61-1,.87-3.41,1.24-4.7,1.8-3.88,1.67-7.21,1.57-11.37,1.54-12.38-.1-24.75.08-37.12,0-4.94,0-9.65-.88-14.54-1.34a50,50,0,0,0-7.34,0c-1.12.06-2.25.16-3.37.18,0,0-4.17,0-3.55.44-.19-.14-.62-6.23-.71-6.93a55,55,0,0,0-1-6.64,89.44,89.44,0,0,1-2-15.13c-.28-5.29-.08-11-1.37-16.17s-1-10.3-1.92-15.52c-2.45-13.66-2.71-27-2.66-40.87,0-4.68-7.25-4.69-7.27,0Z" transform="translate(-7.74 -9.32)"/><path class="cls-2" d="M172.55,458.29c-3.44,3.78-2.23,7.9-3,12.5a126.07,126.07,0,0,0-2.05,18.38c-.17,5.88-1,11.7-1.47,17.52-.29,3.72.58,7.16-.86,10.69-1,2.55-1.71,5.1-2.92,7.6-5.81,12-21.8,10.31-32.6,14.41-4.51,1.71-9.32,3.36-13.26,6.21-3.68,2.66-5.55,8.42-5.69,12.82-.32,9.79,3.31,18.78,14.32,18.5,6.44-.17,12.83-.64,19.25-.88,3.39-.13,6.84.29,10.21-.1,3.05-.35,5.76-1.49,8.88-1.51,6.21,0,12.43-.41,18.63-1.06s12.56.36,18.86,0c10.67-.53,8.26-14,9.11-21.4.67-5.82,2.42-11.86,2.46-17.69.05-7.37-.09-14.75-.09-22.12a49.15,49.15,0,0,1,.69-9c.69-4-.16-8.07-.07-12.09s1.59-7.21,2.24-11,.28-8,.26-11.93c0-4.68-7.29-4.69-7.27,0,0,3,.27,6.21,0,9.25s-1.66,5.95-2.17,9a40.28,40.28,0,0,0-.22,8.36,44.23,44.23,0,0,1-.66,9.35c-.79,4.88-.09,10.31-.09,15.25,0,5.39.51,11,.08,16.41-.36,4.4-1.64,9-2.25,13.45-.34,2.48-.63,5-.83,7.53-.17,2.2.29,4.72-.13,6.87-.5,2.57-1.3,2.46-3.76,2.32s-4.83-.27-7.26-.33a154.84,154.84,0,0,0-18.51,1c-4.78.46-9.88-.13-14.56.93-5.82,1.32-11.5.67-17.39,1.39a87.74,87.74,0,0,1-17,.62c-3.09-.26-4.33-1.78-4.75-4.78-.32-2.27-1-5.08-.67-7.32,1.51-10.71,17.82-12.54,26.25-14,4.39-.73,9.05-2.68,13.23-4.24A21.14,21.14,0,0,0,168,530c2.23-4.14,4.55-9.35,5.24-14,.42-2.86-.14-5.78.12-8.64a69.66,69.66,0,0,0,.8-8.05c-.06-3.42.54-6.68.63-10.1.09-3.11-.21-6.22.47-9.3.61-2.77,1.18-5.48,1.68-8.28.39-2.2-.67-6.54.81-8.16,3.14-3.45-2-8.61-5.15-5.14Z" transform="translate(-7.74 -9.32)"/><path class="cls-3" d="M227.3,170.44c-5.07-.06-9.24,3.16-13.33,5.93-1,.64-1.82,1.33-2.74,2s-1.89.9-2.93,1.56c-2.21,1.39-4.33,4-6.1,5.93a35.6,35.6,0,0,0-5.37,6.87,53,53,0,0,1-4.09,7.27c-3,4-4.17,8.63-6.07,13.09-.84,2-.54,3.83-1.27,5.93a15.85,15.85,0,0,0-.94,6c0,4,0,8,0,12,0,4.35.31,9.32,2.93,13s7.41,7.39,11.82,8.27c3.76.75,7.38.39,11.23.66,1.31.1,2.45.66,3.75.82a33.21,33.21,0,0,0,3.73,0h5.84a36.87,36.87,0,0,0,12.44-2.38,71.69,71.69,0,0,0,12.5-5.72c4-2.38,8.36-5.06,11.1-9a48.2,48.2,0,0,0,6.65-13c.75-2.3,1.65-4.45,2.36-6.83.41-1.37,1.6-2.46,2-3.73.28-1-.09-1.8.07-2.76a23,23,0,0,0,.78-4.6c0-2.76,0-5.52,0-8.29s.52-6-.11-8.64-2.42-5.5-3.58-8c-2.71-5.9-8.12-9.82-13.3-13.51-3.88-2.76-9.42-4.07-14-4.35-1.38-.09-2.55-.65-3.9-.82a40.83,40.83,0,0,0-4.82,0c-2.28,0-5.35-.74-6.82,1.48" transform="translate(-7.74 -9.32)"/><path class="cls-2" d="M227.3,166.8c-4.82.25-8.72,2.11-12.7,4.74-4.55,3-9.35,5.72-13.09,9.72a84,84,0,0,0-16.88,27.15c-3.9,10.21-4.36,20.76-3.74,31.63.55,9.77,6.28,18.56,16,21.5,5.19,1.57,11,1,16.31,1.83a56,56,0,0,0,16-.39,61.41,61.41,0,0,0,29.91-14.14c3.79-3.42,6.54-8.12,8.66-12.72,1.06-2.32,1.86-4.72,2.71-7.13,1-3,3-5.89,3.74-8.87,1.17-4.43,1-9.57,1-14.12,0-5.06.76-10-1.19-14.8-4-9.94-11.49-18.7-21.47-23.09-4.84-2.13-10.65-3-15.88-3.57-4.55-.46-10.8-.92-14.21,2.59-3.27,3.35,1.87,8.51,5.15,5.14,1.84-1.9,9.14-.21,11.33.13,4.12.64,8.18.94,11.95,3,7.34,3.94,12.33,9.88,15.84,17.28,1.82,3.85,1.24,7.58,1.2,11.7,0,4.29,0,8.53-.77,12.75-.64,3.26-2.54,6.72-3.68,10a51.35,51.35,0,0,1-5.92,12.42c-5.15,7.47-14.86,12-23.25,14.75a45,45,0,0,1-14.5,2c-3.9,0-7.47-.69-11.33-.86-4.83-.22-9.27.12-13.44-2.74a14.93,14.93,0,0,1-6.87-11.78,80.71,80.71,0,0,1,1.51-25.25,43.31,43.31,0,0,1,5.69-13c2.79-4.27,4.78-8.95,8.18-12.81a57,57,0,0,1,10.82-9.23c3.9-2.71,7.94-6.17,12.88-6.42,4.66-.25,4.69-7.52,0-7.28Z" transform="translate(-7.74 -9.32)"/><path class="cls-3" d="M305.6,268c-1.39-1.13-3.69-1.48-5.35-2.22s-3.77-1.26-5.53-2.18a89,89,0,0,1-13.47-9c-1.62-1.29-3.71-2.61-4.82-4.3-.8-1.2-1.14-2.57-2-3.74a28.91,28.91,0,0,1-1.91-2.18,33.92,33.92,0,0,1-4.39-11.1,65.53,65.53,0,0,1-.34-21.24c.63-3.84.37-7.62,1.79-11.39a55.49,55.49,0,0,1,2.77-6.7c1.06-1.91,2.91-3.46,4.46-5a21.53,21.53,0,0,1,8.68-4.63c3.35-1.05,7.2-.5,10.7-.53a18.06,18.06,0,0,1,5.61.72c1.9.59,3.27,1.95,5.11,2.8.74.35,1.65.53,2.4.85,1.77.76,2.38,1.74,3.76,2.88s2.78,2.37,4.18,3.66,3.3,2.14,4.47,3.84,2,3.57,3.16,5.25c.95,1.39,1.21,3,2.16,4.39a25.58,25.58,0,0,1,3.95,7.22,103.47,103.47,0,0,1,2.9,11.06c.79,4.45,2.16,8.74,2.05,13.28-.09,3.73-1.72,7.8-3.12,11.23a25.17,25.17,0,0,1-1.91,3.35c-.79,1.3-.83,2.61-1.56,3.91-.61,1.09-1.82,1.8-2.6,2.75a21,21,0,0,1-2.76,3.32c-2.47,2-5.11,2.42-8,3.42-2.72.92-4.6.79-7.36,1-3.16.24-5.18.47-8.15-1.06-2.22-1.15-4.48-2.08-6.65-3.35" transform="translate(-7.74 -9.32)"/><path class="cls-2" d="M307.44,264.81c-2.57-1.55-5.52-2.31-8.31-3.39a49.49,49.49,0,0,1-10.26-5.74c-2.82-2-6.28-4.07-8.63-6.62-1.2-1.31-1.7-3-2.7-4.43a43.74,43.74,0,0,1-3.13-4.36c-3.77-7.16-4.18-16-3.53-23.94.61-7.32.9-16.77,6.06-22.53a19,19,0,0,1,10.74-6.26c3.81-.68,10-.88,13.6.63,6.06,2.54,11.21,6.77,16.06,11.17,2.68,2.42,4.12,6,5.76,9.19,1.87,3.63,4,6.52,5.17,10.53,2.14,7.35,5.31,17,3.3,24.57-1,3.82-3,7-4.61,10.54-1.32,3-4,6.64-6.95,8.25-3.4,1.88-7.63,2.38-11.43,2.61-5,.3-8.6-1.54-13-3.92-4.11-2.24-7.79,4-3.67,6.28,3.8,2.08,8.07,4.72,12.48,5a38.07,38.07,0,0,0,12.48-1.26c3.87-1.08,7.85-2.33,10.65-5.38,1.2-1.31,2.38-2.72,3.56-4.05,1.53-1.73,1.92-3.62,2.9-5.64,1.83-3.75,3.77-7.22,4.78-11.36,1.18-4.86.58-9.5-.41-14.34a145.73,145.73,0,0,0-3.65-15.11c-1.52-4.77-4.35-9-6.75-13.39-8.09-14.68-27.32-26.29-44.29-20.87-8.93,2.85-14.36,9.3-17.41,17.91-1.57,4.43-1.72,9.14-2.29,13.78a69.45,69.45,0,0,0-.15,16.11,41.93,41.93,0,0,0,4.28,15.11c1.18,2.27,2.9,4,4.17,6.22a17.53,17.53,0,0,0,3.78,4.92A99,99,0,0,0,289,264.46c4.66,2.88,10.15,3.85,14.76,6.63,4,2.42,7.68-3.87,3.67-6.28Z" transform="translate(-7.74 -9.32)"/><path class="cls-2" d="M207.36,219.88c4.56.18,9.08,1.59,13.65,2,5.57.52,11.18-.11,16.74.5,9.59,1.06,19.07,3.28,28.58,4.68,8.19,1.21,16.48,2.68,24.74,3.17,4.82.29,9.62,1.26,14.44,1.48,3.9.17,7.75,1.4,11.68,2.06,4.58.77,6.55-6.24,1.94-7-8.23-1.38-16.26-3.46-24.68-3.83a224.48,224.48,0,0,1-27.68-3.08c-9.31-1.57-18.6-3.49-28-4.64-5.28-.64-10.58-.12-15.87-.44s-10.31-2-15.54-2.17c-4.69-.19-4.68,7.08,0,7.28Z" transform="translate(-7.74 -9.32)"/><path class="cls-2" d="M224,277.11c7.25,5.06,12.17,12.67,19.43,17.86,3.87,2.76,7.38,5.8,11,8.9,2.13,1.83,3.95,4.16,6.94,4.39,2.79.21,5.14-1.48,7.12-3.26a81.13,81.13,0,0,0,7.6-7.34c2.58-3,4.79-7.17,7.73-9.75a22.59,22.59,0,0,0,3.51-3.54c1.09-1.44,2.51-4.12,4.46-4.68,4.49-1.28,2.58-8.31-1.94-7-2.86.82-5.09,3-6.91,5.3-2.17,2.74-4.86,4.87-6.84,7.72-2.16,3.1-4.45,6.54-7.3,9.12-1.22,1.1-5.49,6.23-7,6.18,0,0-1.87-1.92-2.27-2.26-1.73-1.5-3.54-2.82-5.17-4.44-2.65-2.62-5.77-4.27-8.58-6.67-6.39-5.47-11.27-12-18.17-16.79-3.85-2.69-7.49,3.62-3.67,6.28Z" transform="translate(-7.74 -9.32)"/><path class="cls-4" d="M240.05,344.52c-5.5-4.8-13.53-6.94-20.48-9.06-2-.6-3.49-1.08-5.38-1.85-.93-.39-2-.53-2.95-.89-1.28-.47-2.42-1.23-3.72-1.72-1-.37-1.92-.34-2.93-.66s-1.85-1.16-3-1.39c-.94-.19-3.8-.31-4.51.14-1.43.91-.67,4.94-.67,6.38v6.9c0,1.94,0,3.89,0,5.83,0,2.24.69,4.25.76,6.46a17.86,17.86,0,0,0,1.18,6.94c1,2.48,1,4.85,1.57,7.44a26.66,26.66,0,0,0,.72,4.18,18.14,18.14,0,0,1,1,2.28c.25,1.12-.64,2.15.82,2.77.34.14,1.85-.47,2.13-.52,2-.32,3.35-1.52,5.3-2.05,1.19-.33,2.35.06,3.55-.26,1.75-.47,3.37-1.94,5-2.7a110.94,110.94,0,0,0,11.79-6c2.64-1.6,9-8.14,12.53-5.85,2.51,1.63,3.72,4,6.82,4.93a49.28,49.28,0,0,1,6.11,2.58,86.89,86.89,0,0,1,13.87,7.21c3.51,2.33,7.86,3.35,11.86,4.62,2.11.68,2.84-.4,2.91-2.57a32.09,32.09,0,0,0-.18-6.28c-.63-3.82-.73-7.47-1.69-11.29-1-4.13-.17-8.84-1.83-12.72-.94-2.16-.74-4.17-.74-6.5,0-1,0-2.07,0-3.1a29.61,29.61,0,0,0-.79-4.47c-.29-1.87.29-5.15-2.33-5.28-1.89-.1-4.22,2.29-5.74,3.08-2.69,1.4-5.54,2.37-8.13,3.86s-4.94,2.87-7.44,4.26c-2.32,1.31-4.12,3.27-6.45,4.46a23.29,23.29,0,0,1-2.52,1.08c-1.35.49-3.22.23-4.29,1.28" transform="translate(-7.74 -9.32)"/><path class="cls-2" d="M242.62,342c-8.35-6.83-19-8.77-28.93-12.31-5.07-1.8-18.42-9.26-20.82-.11-1.15,4.37,0,10.35,0,14.78,0,5.46.14,11.54,1.56,16.86,1.3,4.86,2.3,9.76,3.39,14.65,1,4.27,2.41,6.77,7.2,5.62,10.11-2.41,20.78-6.75,29.21-13.12a39,39,0,0,1,4.88-3.49c2.65-1.41,3.36.64,5.4,2.22,2.34,1.82,5.21,2.6,7.91,3.76,3.17,1.36,6.34,2.78,9.4,4.38,4.75,2.49,9,5.42,14.13,7.1,4.07,1.33,9.3,3.45,11.53-1.67,1.87-4.28.25-10.5-.32-14.93-.38-3-1.11-5.86-1.45-8.82-.39-3.32-.36-6.51-1.23-9.76-1.51-5.62,1.24-26.82-10.62-22.06-2.71,1.08-5.15,3.16-7.84,4.41-3.21,1.48-6.24,3.13-9.31,4.89-2.85,1.63-5.35,3.6-8.09,5.35s-5.59,1.57-8.15,3.16c-4,2.45-.33,8.75,3.67,6.28,1.32-.82,3.23-.85,4.7-1.42a20.7,20.7,0,0,0,4.72-2.65,105.31,105.31,0,0,1,9.8-6.15c3.45-1.95,7.25-3.27,10.6-5.35.77-.57,1.55-1.12,2.35-1.63-.88-.85-1.16-.7-.83.45s.32,2.23.52,3.33c.76,4.22.11,8.38,1.21,12.58,1,3.71.93,7.36,1.53,11.15.71,4.46,1.68,8.91,2,13.43a30.48,30.48,0,0,1,.05,3.17q-.77,2.91,1.65.64c-1.79-.53-3.59-1.07-5.36-1.67-4.22-1.44-7.7-4.06-11.63-6.11-3.54-1.85-7.22-3.46-10.87-5.08a44,44,0,0,1-8.77-5.25,7.75,7.75,0,0,0-7-1.5c-5.51,1.46-10.24,6.63-15.29,9.25-3.48,1.8-7.94,4.74-11.8,5.6a28.79,28.79,0,0,0-5,1.13c-1.32.51-2.79,1.43-4.23,1.57l2.58,1.06-.81-.74,1.06,2.57c-.12-7.15-3.59-14.27-4.39-21.39a103.83,103.83,0,0,1-.81-11.82c0-3.32,1-8.5-.2-11.67q.43-2.19-1.16-.21,1,0,1.92,0a27.6,27.6,0,0,0,4.42,1.7c3.21,1,6.3,2.39,9.5,3.49,7.73,2.65,16.4,4.14,22.88,9.44,3.6,3,8.78-2.17,5.15-5.14Z" transform="translate(-7.74 -9.32)"/><path class="cls-1" d="M146.52,335.85a78.94,78.94,0,0,1-1.5,12.91,87.52,87.52,0,0,0-2.35,14.52,40,40,0,0,1-.77,7.4,63.49,63.49,0,0,0-1.51,6.23c-.71,4.92-1.35,9.83-2.53,14.65-.65,2.61-1.13,5.32-1.91,7.88s-2.16,4.79-2.72,7.53c-1,5-1.77,10.24-3.47,15.08-.49,1.38-1.12,2.72-1.56,4.1s-.18,2.76-.53,4.09-1.32,2.75-1.8,4.14-.87,3.05-1.35,4.59a33.78,33.78,0,0,0-1.41,4.11c-.21,1.31,0,2.7-.16,4s-.91,2.77-1.06,4.25a12.79,12.79,0,0,1-.75,4.18c-.93,2.19-1.44,4.24-2.42,6.39-.74,1.61-1.06,2.28-2.73,3.1-1.86.9-3.51,2.12-5.41,2.94-2.57,1.1-4.69.9-7.43.74-1.38-.08-2.89,0-4.26-.21-1.61-.27-3-1.2-4.53-1.62-1.78-.49-3.42-.56-5.07-1.54a36.55,36.55,0,0,0-5.08-2.66c-2.72-1.11-5.31-2.69-8.28-3-2.76-.29-7.45-1.21-9.7.53a6.58,6.58,0,0,0-2.67,3.95c-.26,1.63.55,2.86,1.13,4.34.5,1.3.65,2.59,1.63,3.6,1.54,1.56,3.55,1.67,5.23,2.85,1.21.85,1.86,2.27,3,3.18,1.82,1.44,4.74,2.05,6.14,3.95-1.93.79-5.27-1.29-7.13-1.7A51.6,51.6,0,0,0,64.85,479C61,478.8,53,476.49,51.42,481.33c-.84,2.52.56,6.72,2.14,8.76,1.32,1.68,3.22,2.14,5.18,2.81a24.17,24.17,0,0,0,5.86,1.64c1.93.15,4.36-.14,6.17.48-4.42,3.2-10.47,3.64-14.81,7.15-1.84,1.49-2,3.23-1.33,5.47.86,2.75,2.06,3.8,4.65,4.32a39.72,39.72,0,0,0,5.67,1.1,21.18,21.18,0,0,0,7.51-.83,54.69,54.69,0,0,0,6.79-2.39c2.27-1,5.41-2.94,7.82-3.22a13,13,0,0,1-2.6,2.13c-.87.72-1.5,1.68-2.35,2.41-1.41,1.2-2.36,1.71-3.2,3.47-1.42,3-1.5,7,1.08,9.57,1.25,1.23,2.76,1,4.39,1.11,2.24.09,5.06.77,7.27.31,1.53-.33,2.92-1,4.5-1.27,2.39-.45,3.65-1.28,5.8-2.46s4.68-1.41,6.92-2.55c1-.52,2.08-1,3.16-1.46,3.12-1.22,5.58-3.23,8.58-4.65a64.1,64.1,0,0,0,10.58-6.56c1.62-1.2,3.33-2.38,4.9-3.64,2.21-1.77,2.92-3.1,4.24-5.49,1-1.83,2.31-3,3-5a21,21,0,0,0,.73-4c.24-1.32,1.09-2,1.55-3.18.64-1.67.2-3.62.61-5.35.48-2,1.5-3.56,1.7-5.65a40.25,40.25,0,0,1,.94-6.68c.43-1.68.24-3.32.8-5,.34-1,.89-1.94,1.17-3,.33-1.22,0-2.55.33-3.74a23.94,23.94,0,0,0,1-3.6c.16-1.64.2-3.35.28-5a9.24,9.24,0,0,1,.75-3c.56-1.66.65-3.6,1.06-5.31a38.23,38.23,0,0,0,.58-7.1,17.1,17.1,0,0,1,.79-3.57c.93-3.82.89-8,2.12-11.71.74-2.26,1.95-4.15,2.1-6.55.12-1.93.78-3.39,1.06-5.25.39-2.72,1.29-5,1.85-7.68.33-1.52.14-3.07.5-4.6.47-2.06.57-4.22,1.11-6.27.49-1.86,1.35-3.73,1.69-5.64a27.23,27.23,0,0,1,1.2-5.09,18.74,18.74,0,0,0,.89-5.87" transform="translate(-7.74 -9.32)"/><path class="cls-2" d="M142.88,335.85c-.53,8.67-2.92,16.94-3.71,25.56a244,244,0,0,1-4,25.55c-1.57,8-4.72,15.35-6.24,23.26a76.43,76.43,0,0,1-2.65,10.86c-1.25,3.58-1.82,7.33-3.22,10.77-2.53,6.21-3.67,12.48-4.71,19-.49,3-1.41,8.42-3.71,10.63-2.77,2.68-7,3.75-10.67,3.61-7.59-.28-13.8-3.78-20.59-6.78-4.9-2.17-11.83-4.06-17.14-2.18-7,2.5-6.8,9.49-4.37,15.19,1.57,3.69,4,4.37,7.14,6.49,1.58,1.08,2.65,2.65,4.25,3.75s3.52,1.6,4.91,3.05l1.6-6.08c-2.12.35-6.35-2-8.68-2.41-3-.54-6.1-.72-9.15-1.1-4.5-.56-9.92-1-12.9,3.16s-1.16,10.91,2,14.46c4.76,5.39,12.57,4.52,18.81,5.87l-.86-6.65c-5.07,3.29-12.41,3.82-16.47,8.64-3,3.58-2,9.56,1.26,12.69,3.66,3.46,11.09,3.89,15.77,3.32,6.74-.83,12.1-5,18.53-6.4l-3.54-6.08C79.84,508.9,74,511.9,74.32,519.59c.37,8.37,7,9.19,13.72,9.71,7.45.58,15.33-3.65,22-6.52a126.58,126.58,0,0,0,24.24-13.87c5.56-4.06,11.34-9.79,13-16.78.69-3,2.12-5.7,2.39-8.76.37-4.32,1.7-8.72,2.4-13.06.65-4,2.09-7.86,2.63-11.85.48-3.57.8-7.54,1.46-11.09,1.44-7.74,2.81-15.4,3.9-23.21.67-4.75,2.57-8.94,3.43-13.58.81-4.34,2.18-8.6,2.92-12.94.8-4.75,1.28-9.24,2.66-13.89a62,62,0,0,0,2.78-14.06c.26-4.67-7-4.66-7.27,0-.39,6.92-3.36,13.52-4.46,20.34-1.07,6.58-2.49,13-3.79,19.58-.63,3.22-2.21,6.1-2.82,9.35s-1.1,6.8-1.79,10.18-.6,6.83-1.16,10.23c-.45,2.7-1.44,5.28-1.68,8-.59,6.65-2.42,12.77-3.46,19.32-1,6.4-2,13.27-4.21,19.28-1.11,3.07-1.36,5.63-3.19,8.46-2.07,3.21-3.65,5.44-6.79,7.75a131.06,131.06,0,0,1-19.5,11.89c-3.54,1.76-7.35,2.72-10.91,4.37s-7.31,3.56-11.27,3.67c-3.53.11-9.65-.23-7.57-5.35,1.29-3.17,5.37-5.15,7.68-7.57a3.67,3.67,0,0,0-3.54-6.08c-8.13,1.71-14.21,7.53-23,6-1.58-.27-4.59-.41-4.92-2.43s2.21-3.07,3.53-3.66c3.69-1.67,7.52-2.62,11-4.85,2.45-1.6,2.36-6-.87-6.65-4.32-.93-8.62-.44-12.76-2.36-2-.93-4.81-3.22-4-5.91.57-1.87,2.71-1.37,4.62-1.2a98,98,0,0,1,11.23,1.45c3.79.79,6.87,2.73,10.82,2.08,2.83-.47,3.34-4.28,1.61-6.08-1.91-2-4.48-2.71-6.53-4.43-1.2-1-2-2.37-3.36-3.27S70,470.62,69,469.34c-.8-1-2-4.67-1.12-5.77s3.14-.78,4.35-.69c4,.27,7.25,1.59,10.82,3.24,5.46,2.52,11.09,5.72,17.23,6.14,7,.48,12.09-.55,18-4.4,4.53-2.93,6.22-10.1,7.06-15.07.52-3.06.86-6.23,1.43-9.26.7-3.73,2.5-7.41,3.83-10.95,1.08-2.89,1.26-5.93,2.35-8.88a72.6,72.6,0,0,0,2.91-11.55c1.4-7.29,4.28-14.13,5.86-21.44,1-4.51,1.4-9.1,2.27-13.63.78-4.05,1.88-7.79,2.17-11.94.69-9.88,3.34-19.38,3.94-29.29.28-4.68-7-4.66-7.28,0Z" transform="translate(-7.74 -9.32)"/><path class="cls-5" d="M222.32,28c2.17,5.83,7.38,8.75,10.53,13.83,2.24,3.62,4.89,6.9,7.13,10.52s5.79,6.71,8.59,10c3.87,4.61,7.43,9.45,11.14,14.2,2.06,2.65,4.66,4.31,7.31,6.25,3.2,2.33,6.24,4.93,9.49,7.2,2.36,1.65,5.15,1.44,7.8,2.6,3.83,1.69,8,3.15,11.7,5.09s7.32,4.31,11.33,6c1.78.73,3.58,1.87,5.48,2.21,2.16.39,4.14.76,6.29,1.31,4.42,1.12,8.87,1.25,13.23,2.66A36.25,36.25,0,0,0,344,111.33q11.85,0,23.71,0c6.11,0,12.31-.31,18.41,0,1.79.09,2.44,0,2.82-1.91a32.24,32.24,0,0,0,.09-6.06c0-3.42.42-6.93-.65-10.2-2.53-7.66-3.95-15.8-7.83-23a76,76,0,0,1-4.84-10.82c-1.53-4.38-4.18-8.38-5.62-12.78a20.73,20.73,0,0,0-1.71-4.6c-.79-1.33-1.69-2.59-2.38-4s-1-2.71-1.6-4-1.77-2.14-2.72-3.31A30.94,30.94,0,0,0,355,24.13,19.66,19.66,0,0,0,351,22c-1.54-.6-3.16-.55-4.72-1-2.85-.84-5.29-2-8.2-2.36a53.48,53.48,0,0,1-7.75-2.08c-2.4-.74-4.62-2.26-7.17-2.55-1.16-.14-2.39.1-3.56,0-1.88-.07-3.6-.67-5.5-.71-5.64-.14-11.3,0-16.94,0-8.34,0-16.58-.29-24.78,1.42-2.88.6-5.79.27-8.66.91A64.52,64.52,0,0,0,255.62,18a54.75,54.75,0,0,0-8,4,31.79,31.79,0,0,1-3.45,1.45,41,41,0,0,1-4.55,1.31c-.69.21-1.34.92-2,1.1s-1.21,0-1.82.09c-1.49.23-3,.71-4.52,1-2,.41-5.63.75-7,2.33" transform="translate(-7.74 -9.32)"/><path class="cls-2" d="M219.18,29.83c2.66,6.18,8.31,10.59,12,16.12a163.23,163.23,0,0,0,13.72,17.77c5,5.65,8.87,12.7,14.44,17.8,2.51,2.31,5.47,4.15,8.17,6.22,2.85,2.2,5.7,5,9,6.41s6.81,2,10.12,3.4a118.94,118.94,0,0,1,12.28,6,69.47,69.47,0,0,0,20.12,7.38c7.54,1.63,15.43,3.85,23.17,4,8.46.22,16.95,0,25.41,0,4,0,8-.13,12-.13,2.87,0,7.06,1,9.78-.36,5-2.45,3.42-11.8,3.28-16.25-.23-7.17-3.23-15.1-5.59-21.83-2.45-7-6-13.68-8.92-20.5-5.15-12.18-9.55-26.32-20.72-34.42-5.58-4.05-13.36-5.2-20-6.66a72.24,72.24,0,0,1-10-3.37c-3.59-1.38-7.28-1-11.05-1.53-9.06-1.13-18.78-.32-27.91-.23a133.4,133.4,0,0,0-26.6,2.65,50,50,0,0,0-11.42,4,116.18,116.18,0,0,1-12.26,5.17C233,23.39,226.31,23,221.75,26.76c-3.63,3,1.55,8.09,5.14,5.14,1.7-1.38,6.27-1.76,8.39-2.12a34.77,34.77,0,0,0,6.85-1.88c6.54-2.38,12.56-6.08,19.27-7.92,6.33-1.74,13.91-2.39,20.45-2.81,7.59-.48,15.23-.19,22.83-.25,3.09,0,6.32-.23,9.41,0,3.65.3,8.21.23,11.57,1.58,5.87,2.36,11.93,3.6,18,5.41,2.78.83,5.66,1.08,8.22,2.52,2.92,1.63,5.12,4.24,7.2,6.8,3.9,4.77,6.12,11.12,8.44,16.79,5.12,12.55,11.65,24.35,15.35,37.45,1,3.54,2.36,7,2.57,10.73.15,2.57-.59,5.66,0,8.2V108q1.83-.57-1.2-.33a44.16,44.16,0,0,0-5.52-.07c-3.68,0-7.37.12-11.05.13-7.24,0-14.49,0-21.73,0-7.91,0-15.28-2-23-3.41a62.88,62.88,0,0,1-18.69-6.15c-6.2-3.31-12.31-6.63-19-9-3.54-1.27-6.56-1.9-9.67-4.26s-6.27-4.68-9.36-7.07c-6.1-4.73-10.09-12.17-15.1-18a183.73,183.73,0,0,1-13.65-17.53c-3.69-5.49-9.42-10.06-12-16.12-1.84-4.29-8.11-.58-6.28,3.67Z" transform="translate(-7.74 -9.32)"/></svg>